<svg width="36" height="38" viewBox="0 0 36 38" fill="none" xmlns="http://www.w3.org/2000/svg">
<g id="ball-game-poke-sport-sports-svgrepo-com 1" filter="url(#filter0_d_1_21)">
<path id="Vector" d="M31.2016 17.3333H24.4675C23.8497 20.3762 21.1595 22.6666 17.9341 22.6666C14.7089 22.6666 12.0185 20.3762 11.4008 17.3333H4.66666C5.33562 24.071 11.0204 29.3333 17.9341 29.3333C24.848 29.3333 30.5327 24.071 31.2016 17.3333Z" fill="white"/>
<path id="Vector_2" d="M31.2016 14.6667C30.5327 7.92893 24.848 2.66669 17.9341 2.66669C11.0204 2.66669 5.33562 7.92893 4.66666 14.6667H11.4008C12.0185 11.6237 14.7089 9.33335 17.9341 9.33335C21.1595 9.33335 23.8497 11.6237 24.4675 14.6667H31.2016Z" fill="white"/>
<path id="Vector_3" fill-rule="evenodd" clip-rule="evenodd" d="M17.9341 20C20.1433 20 21.9341 18.2092 21.9341 16C21.9341 13.7908 20.1433 12 17.9341 12C15.7251 12 13.9342 13.7908 13.9342 16C13.9342 18.2092 15.7251 20 17.9341 20ZM19.9341 16C19.9341 17.1045 19.0388 18 17.9341 18C16.8296 18 15.9341 17.1045 15.9341 16C15.9341 14.8955 16.8296 14 17.9341 14C19.0388 14 19.9341 14.8955 19.9341 16Z" fill="white"/>
</g>
<defs>
<filter id="filter0_d_1_21" x="-2" y="0" width="40" height="40" filterUnits="userSpaceOnUse" color-interpolation-filters="sRGB">
<feFlood flood-opacity="0" result="BackgroundImageFix"/>
<feColorMatrix in="SourceAlpha" type="matrix" values="0 0 0 0 0 0 0 0 0 0 0 0 0 0 0 0 0 0 127 0" result="hardAlpha"/>
<feOffset dy="4"/>
<feGaussianBlur stdDeviation="2"/>
<feComposite in2="hardAlpha" operator="out"/>
<feColorMatrix type="matrix" values="0 0 0 0 0 0 0 0 0 0 0 0 0 0 0 0 0 0 0.25 0"/>
<feBlend mode="normal" in2="BackgroundImageFix" result="effect1_dropShadow_1_21"/>
<feBlend mode="normal" in="SourceGraphic" in2="effect1_dropShadow_1_21" result="shape"/>
</filter>
</defs>
</svg>
